<?xml version="1.0" encoding="utf-8"?>
<!-- Generator: Adobe Illustrator 23.0.3, SVG Export Plug-In . SVG Version: 6.00 Build 0)  -->
<svg version="1.1" id="Layer_1" xmlns="http://www.w3.org/2000/svg" xmlns:xlink="http://www.w3.org/1999/xlink" x="0px" y="0px"
	 viewBox="0 0 200 200" style="enable-background:new 0 0 200 200;" xml:space="preserve">
<style type="text/css">
	.st0{fill:#FFCFA3;stroke:#603813;stroke-width:2;stroke-miterlimit:10;}
	.st1{fill:#FFCFA3;stroke:#603813;stroke-width:2;stroke-linecap:round;stroke-linejoin:round;stroke-miterlimit:10;}
	.st2{fill:#FFCFA3;stroke:#603813;stroke-width:1.9201;stroke-linecap:round;stroke-linejoin:round;stroke-miterlimit:10;}
</style>
<path class="st0" d="M122.79,70.02l-12.48,22.55c-5.21,17.8,3.08,41.95-11.45,42.23v21.3H64.28l4.18-19.96
	c-11.03,0.37-14.97-8.22-19.35-16.69l-20.78-9.01c-1.38,0.09-2.56-0.97-2.63-2.35l-0.29-5.93c-0.13-2.7,1.94-4.99,4.63-5.12
	l21.25,8.21l1.76-4.17L53.5,90.7L33.39,57.93c-2.57-6.06-1.45-10.23,1.81-12.12l3.68-2.12c3.27-1.89,7.44-0.77,9.33,2.5
	c0,0,17.16,33.38,18.83,32.63c1.67-0.75-5.88-33.26-5.88-33.26c-0.62-3.72,1.89-7.24,5.61-7.86l4.2-0.69
	c3.72-0.62,7.23,1.9,7.85,5.62c0,0,1.15,37.84,2.64,37.84c1.49-0.05-0.17-0.72-0.17-0.72l9.62-36.43c1.02-3.63,4.79-5.74,8.42-4.71
	l4.09,1.15c3.63,1.03,5.74,4.8,4.72,8.43c0,0-12.48,31.59-11.05,32.94c1.43,1.34,14.2-20.14,14.2-20.14
	c2.33-2.97,6.62-3.48,9.59-1.15l0.76,0.59C124.6,62.76,125.11,67.05,122.79,70.02z"/>
<path class="st1" d="M51.73,105.02c15.99-7.3,30.37,9.91,27.09,24.22"/>
<path class="st2" d="M61.55,91.66c3.61-7.48,41.51-0.01,39.42,7.55"/>
<path class="st0" d="M317.5,127.04c0.52-9.23-6.35-15.65-13.09-16.57 M325.94,100h1.37v-5.78L325.94,100z M325.94,100h1.37v-5.78
	L325.94,100z M325.94,100h1.37v-5.78L325.94,100z M277.46,110.28l-0.09,0.02l1.73,2.83C278.52,112.17,277.97,111.22,277.46,110.28z
	 M325.94,100h1.37v-5.78L325.94,100z M327.31,93.36v0.86l0.22-0.93L327.31,93.36z M340.78,106.64c-5.59,0.71-10.82-0.57-15.54-3.69
	l0.7-2.95c-3.05,1.17-6.21,1.79-9.61,1.36c-0.13,0.51-2.47,6.63-11.92,9.11h-0.01l-25.3,2.66l11.56,21.42
	c4.22,4.3,17.45-3.22,13.75,3.06l-6.29,16.73l34.79-0.77l-5.06-17.36c-2.61-5.98,6.37-2.67,8.82-8.51
	c5.59-13.31,8.71-40.47,8.71-40.47L340.78,106.64z M327.31,80.36v13.86l0.22-0.93l3.07-12.93H327.31z M325.94,100h1.37v-5.78
	L325.94,100z M306.74,32.15l-11.69,40l-4.34-36.69c-1.5-12.69-20.3-10.47-18.8,2.22l6.63,56.21l2.13-0.38l30.34-5.36l0.32-1.27
	V68.22c0-1.6,2.46-2.57,5.45-2.9l8.13-27.86C327.88,27.31,309.71,22,306.74,32.15z"/>
<path class="st0" d="M348.11,75.71l-2.73,11.51v0.01l-4.6,19.41c-5.59,0.71-10.82-0.57-15.54-3.69l0.7-2.95h1.37v-5.78l0.22-0.93
	l3.07-12.93l1.97-8.33C333.71,67.23,349.25,70.91,348.11,75.71z"/>
<path class="st0" d="M317.28,96.76c-0.18,1.4-0.49,2.93-0.95,4.6c-0.13,0.51-2.47,6.63-11.92,9.11h-0.01l-25.3,2.66
	c-0.58-0.96-1.13-1.91-1.64-2.85c-3.26-5.92-5.07-11.35-3.34-15.61l4.42-0.78l2.13-0.38l30.34-5.36l0.32-0.06l4.55-0.8
	C317.26,89.53,317.85,92.56,317.28,96.76z"/>
<path class="st0" d="M327.31,68.22v26l-1.37,5.78c-3.05,1.17-6.21,1.79-9.61,1.36c0.46-1.67,0.77-3.2,0.95-4.6
	c0.57-4.2-0.02-7.23-1.4-9.47l-4.55,0.8V68.22c0-1.6,2.46-2.57,5.45-2.9c0.54-0.07,1.1-0.11,1.66-0.13
	C322.71,65.02,327.31,66.04,327.31,68.22z"/>
<path class="st0" d="M67.99,316.2l-14.46,0.86l8.02,18.12l-8.02,4.94l-0.3,0.13l0,0c-8.39-8.98-22.86-31.9-20.77-35.55
	c7.26-10.36,31.81-7.06,31.81-7.06l1.83,8.28l0.01,0.03l2.26,10.17L67.99,316.2z M104.35,292.39v0.93l0.22-0.93H104.35z
	 M100.7,310.97c0.16-0.02,0.31-0.05,0.47-0.09 M121.62,292.39l-5.24,22.1c-6.47,0.41-11.64-0.82-15.68-3.52
	c-3.53,0.63-7.69,0.49-12.93-0.97v-17.61h-2.82V310c-5.53,1.76-11.05,1.76-16.58,0v-4.72l-1.18,0.34l-1.09,0.3l0.01,0.03l2.26,10.17
	l-0.38,0.08l-14.46,0.86l8.02,18.12l-8.02,4.94l-0.3,0.13c2.4,1.74,5.34,2.73,8.48,2.71l5.43-0.04v21.24h37.43v-21.43l0.64-0.07
	c5.76-0.04,10.62-4.28,11.46-9.98l5.88-40.29H121.62z M53.15,317.14l8.02,18.12l-8.02,4.94c0.03,0.02,0.05,0.04,0.08,0.05l0.3-0.13
	l8.02-4.94l-8.02-18.12L53.15,317.14z M66.11,305.95l-0.01-0.03l-0.37,0.11l2.26,10.17l0.38-0.08L66.11,305.95z M68.37,272.45v13.03
	l4.87,17.28c-2.07,2.04-3.61,2.81-4.87,2.93V310c5.53,1.76,11.05,1.76,16.58,0v-37.55H68.37z M68.37,305.69
	c1.26-0.12,2.8-0.89,4.87-2.93l-4.87-17.28l-4.88-17.31l-20.39,4.6l5.8,18.38l1.61,5.73l13.47,0.73l2.18,7.68
	c0.33,0.14,0.66,0.26,1.02,0.34 M68.37,305.28 M108.9,274.12l-4.33,18.27l-0.22,0.93V310c-1.01,0.36-2.06,0.66-3.18,0.88
	c-0.16,0.04-0.31,0.07-0.47,0.09c4.04,2.7,9.21,3.93,15.68,3.52l5.24-22.1l3.42-14.44L108.9,274.12z M104.35,310 M76.66,336.83
	c2.87-10.89,0.68-18.25-8.67-20.63 M101.29,310c1.12-0.22,2.17-0.52,3.18-0.88v-16.68v-0.93v-19.94H87.89v19.94v17.62
	c4.32,1.78,9.5,2.46,16.58,0.87"/>
</svg>
