<?xml version="1.0" encoding="utf-8"?>
<!-- Generator: Adobe Illustrator 23.0.3, SVG Export Plug-In . SVG Version: 6.00 Build 0)  -->
<svg version="1.1" id="Layer_1" xmlns="http://www.w3.org/2000/svg" xmlns:xlink="http://www.w3.org/1999/xlink" x="0px" y="0px"
	 viewBox="0 0 200 200" style="enable-background:new 0 0 200 200;" xml:space="preserve">
<style type="text/css">
	.st0{fill:#FFCFA3;stroke:#603813;stroke-width:2;stroke-miterlimit:10;}
	.st1{fill:#FFCFA3;stroke:#603813;stroke-width:2;stroke-linecap:round;stroke-linejoin:round;stroke-miterlimit:10;}
	.st2{fill:#FFCFA3;stroke:#603813;stroke-width:1.9201;stroke-linecap:round;stroke-linejoin:round;stroke-miterlimit:10;}
</style>
<path class="st0" d="M122.79,70.02l-12.48,22.55c-5.21,17.8,3.08,41.95-11.45,42.23v21.3H64.28l4.18-19.96
	c-11.03,0.37-14.97-8.22-19.35-16.69l-20.78-9.01c-1.38,0.09-2.56-0.97-2.63-2.35l-0.29-5.93c-0.13-2.7,1.94-4.99,4.63-5.12
	l21.25,8.21l1.76-4.17L53.5,90.7L33.39,57.93c-2.57-6.06-1.45-10.23,1.81-12.12l3.68-2.12c3.27-1.89,7.44-0.77,9.33,2.5
	c0,0,17.16,33.38,18.83,32.63c1.67-0.75-5.88-33.26-5.88-33.26c-0.62-3.72,1.89-7.24,5.61-7.86l4.2-0.69
	c3.72-0.62,7.23,1.9,7.85,5.62c0,0,1.15,37.84,2.64,37.84c1.49-0.05-0.17-0.72-0.17-0.72l9.62-36.43c1.02-3.63,4.79-5.74,8.42-4.71
	l4.09,1.15c3.63,1.03,5.74,4.8,4.72,8.43c0,0-12.48,31.59-11.05,32.94c1.43,1.34,14.2-20.14,14.2-20.14
	c2.33-2.97,6.62-3.48,9.59-1.15l0.76,0.59C124.6,62.76,125.11,67.05,122.79,70.02z"/>
<path class="st1" d="M51.73,105.02c15.99-7.3,30.37,9.91,27.09,24.22"/>
<path class="st2" d="M61.55,91.66c3.61-7.48,41.51-0.01,39.42,7.55"/>
</svg>
