<?xml version="1.0" encoding="utf-8"?>
<!-- Generator: Adobe Illustrator 23.0.3, SVG Export Plug-In . SVG Version: 6.00 Build 0)  -->
<svg version="1.1" id="Layer_1" xmlns="http://www.w3.org/2000/svg" xmlns:xlink="http://www.w3.org/1999/xlink" x="0px" y="0px"
	 viewBox="0 0 200 200" style="enable-background:new 0 0 200 200;" xml:space="preserve">
<style type="text/css">
	.st0{fill:#FFCFA3;stroke:#603813;stroke-width:2;stroke-miterlimit:10;}
	.st1{fill:#FFCFA3;stroke:#603813;stroke-width:2;stroke-linecap:round;stroke-linejoin:round;stroke-miterlimit:10;}
	.st2{fill:#FFCFA3;stroke:#603813;stroke-width:1.9201;stroke-linecap:round;stroke-linejoin:round;stroke-miterlimit:10;}
</style>
<path class="st0" d="M67.99,96.2l-14.46,0.86l8.02,18.12l-8.02,4.94l-0.3,0.13v0c-8.39-8.98-22.86-31.9-20.77-35.55
	c7.26-10.36,31.81-7.06,31.81-7.06l1.83,8.28l0.01,0.03l2.26,10.17L67.99,96.2z M104.35,72.39v0.93l0.22-0.93H104.35z M100.7,90.97
	c0.16-0.02,0.31-0.05,0.47-0.09 M121.62,72.39l-5.24,22.1c-6.47,0.41-11.64-0.82-15.68-3.52c-3.53,0.63-7.69,0.49-12.93-0.97V72.39
	h-2.82V90c-5.53,1.76-11.05,1.76-16.58,0v-4.72l-1.18,0.34l-1.09,0.3l0.01,0.03l2.26,10.17l-0.38,0.08l-14.46,0.86l8.02,18.12
	l-8.02,4.94l-0.3,0.13c2.4,1.74,5.34,2.73,8.48,2.71l5.43-0.04v21.24h37.43v-21.43l0.64-0.07c5.76-0.04,10.62-4.28,11.46-9.98
	l5.88-40.29H121.62z M53.15,97.14l8.02,18.12l-8.02,4.94c0.03,0.02,0.05,0.04,0.08,0.05l0.3-0.13l8.02-4.94l-8.02-18.12L53.15,97.14
	z M66.11,85.95l-0.01-0.03l-0.37,0.11l2.26,10.17l0.38-0.08L66.11,85.95z M68.37,52.45v13.03l4.87,17.28
	c-2.07,2.04-3.61,2.81-4.87,2.93V90c5.53,1.76,11.05,1.76,16.58,0V52.45H68.37z M68.37,85.69c1.26-0.12,2.8-0.89,4.87-2.93
	l-4.87-17.28l-4.88-17.31l-20.39,4.6l5.8,18.38l1.61,5.73l13.47,0.73l2.18,7.68c0.33,0.14,0.66,0.26,1.02,0.34 M68.37,85.28
	 M108.9,54.12l-4.33,18.27l-0.22,0.93V90c-1.01,0.36-2.06,0.66-3.18,0.88c-0.16,0.04-0.31,0.07-0.47,0.09
	c4.04,2.7,9.21,3.93,15.68,3.52l5.24-22.1l3.42-14.44L108.9,54.12z M104.35,90 M76.66,116.83c2.87-10.89,0.68-18.25-8.67-20.63
	 M101.29,90c1.12-0.22,2.17-0.52,3.18-0.88V72.44v-0.93V51.57H87.89v19.94v17.62c4.32,1.78,9.5,2.46,16.58,0.87"/>
</svg>
