<?xml version="1.0" encoding="utf-8"?>
<!-- Generator: Adobe Illustrator 23.0.3, SVG Export Plug-In . SVG Version: 6.00 Build 0)  -->
<svg version="1.1" id="Layer_1" xmlns="http://www.w3.org/2000/svg" xmlns:xlink="http://www.w3.org/1999/xlink" x="0px" y="0px"
	 viewBox="0 0 200 200" style="enable-background:new 0 0 200 200;" xml:space="preserve">
<style type="text/css">
	.st0{fill:#FFCFA3;stroke:#603813;stroke-width:2;stroke-miterlimit:10;}
	.st1{fill:#FFCFA3;stroke:#603813;stroke-width:2;stroke-linecap:round;stroke-linejoin:round;stroke-miterlimit:10;}
	.st2{fill:#FFCFA3;stroke:#603813;stroke-width:1.9201;stroke-linecap:round;stroke-linejoin:round;stroke-miterlimit:10;}
</style>
<g>
	<path class="st0" d="M107.5,136.52c0.52-9.23-6.35-15.65-13.09-16.57 M115.94,109.48h1.37v-5.78L115.94,109.48z M115.94,109.48
		h1.37v-5.78L115.94,109.48z M115.94,109.48h1.37v-5.78L115.94,109.48z M67.46,119.76l-0.09,0.02l1.73,2.83
		C68.52,121.65,67.97,120.7,67.46,119.76z M115.94,109.48h1.37v-5.78L115.94,109.48z M117.31,102.84v0.86l0.22-0.93L117.31,102.84z
		 M130.78,116.12c-5.59,0.71-10.82-0.57-15.54-3.69l0.7-2.95c-3.05,1.17-6.21,1.79-9.61,1.36c-0.13,0.51-2.47,6.63-11.92,9.11H94.4
		l-25.3,2.66l11.56,21.42c4.22,4.3,17.45-3.22,13.75,3.06l-6.29,16.73l34.79-0.77l-5.06-17.36c-2.61-5.98,6.37-2.67,8.82-8.51
		c5.59-13.31,8.71-40.47,8.71-40.47L130.78,116.12z M117.31,89.84v13.86l0.22-0.93l3.07-12.93H117.31z M115.94,109.48h1.37v-5.78
		L115.94,109.48z M96.74,41.63l-11.69,40l-4.34-36.69c-1.5-12.69-20.3-10.47-18.8,2.22l6.63,56.21l2.13-0.38l30.34-5.36l0.32-1.27
		V77.7c0-1.6,2.46-2.57,5.45-2.9l8.13-27.86C117.88,36.79,99.71,31.48,96.74,41.63z"/>
	<path class="st0" d="M138.11,85.19l-2.73,11.51v0.01l-4.6,19.41c-5.59,0.71-10.82-0.57-15.54-3.69l0.7-2.95h1.37v-5.78l0.22-0.93
		l3.07-12.93l1.97-8.33C123.71,76.71,139.25,80.39,138.11,85.19z"/>
	<path class="st0" d="M107.28,106.24c-0.18,1.4-0.49,2.93-0.95,4.6c-0.13,0.51-2.47,6.63-11.92,9.11H94.4l-25.3,2.66
		c-0.58-0.96-1.13-1.91-1.64-2.85c-3.26-5.92-5.07-11.35-3.34-15.61l4.42-0.78l2.13-0.38l30.34-5.36l0.32-0.06l4.55-0.8
		C107.26,99.01,107.85,102.04,107.28,106.24z"/>
	<path class="st0" d="M117.31,77.7v26l-1.37,5.78c-3.05,1.17-6.21,1.79-9.61,1.36c0.46-1.67,0.77-3.2,0.95-4.6
		c0.57-4.2-0.02-7.23-1.4-9.47l-4.55,0.8V77.7c0-1.6,2.46-2.57,5.45-2.9c0.54-0.07,1.1-0.11,1.66-0.13
		C112.71,74.5,117.31,75.52,117.31,77.7z"/>
</g>
</svg>
